# xmcd
#
# Track frame offsets:
# 183
# 17435
# 36448
# 53078
# 70378
# 83138
# 100673
# 109233
# 125603
# 140168
# 157885
# 171778
# 184660
# 200488
#
# Disc length: 2844 seconds
#
#
# Revision: 0
# Processed by: cddbd v1.5.1PL0 Copyright (c) Steve Scherf et al.
# Submitted via: FreeRIP 2.93 
#
DISCID=be0b1a0e
DTITLE=Early Bird - Early Bird
DYEAR=1990
DGENRE=Country
TTITLE0=The Sound of Country Music
TTITLE1=When You Are Gone
TTITLE2=Blue Ridge mountain Boy
TTITLE3=Rolling At The End Off The Line
TTITLE4=I'm Living For You
TTITLE5=I Can Only Hope That You Forgive
TTITLE6=Touch Down
TTITLE7=It's Only Temporary
TTITLE8=Nashville Tennessee
TTITLE9=It's Alright
TTITLE10=Sweet Angeline
TTITLE11=Goodbye Ginny Goodbye
TTITLE12=Till My Last Teardrop Fall
TTITLE13=Happy-Go-Lucky Guitar
EXTD=
EXTT0=
EXTT1=
EXTT2=
EXTT3=
EXTT4=
EXTT5=
EXTT6=
EXTT7=
EXTT8=
EXTT9=
EXTT10=
EXTT11=
EXTT12=
EXTT13=
PLAYORDER=
